<svg xmlns="http://www.w3.org/2000/svg" viewBox="0 0 1008 230"><defs><style>.cls-1{fill:#fff;}</style></defs><title>LOGO01-白</title><g id="&#x5716;&#x5C64;_2" data-name="&#x5716;&#x5C64; 2"><g id="&#x5716;&#x5C64;_1-2" data-name="&#x5716;&#x5C64; 1"><circle class="cls-1" cx="108.87" cy="31.67" r="31.67"></circle><circle class="cls-1" cx="31.67" cy="179.33" r="31.67"></circle><circle class="cls-1" cx="108.87" cy="179.33" r="31.67"></circle><circle class="cls-1" cx="188.1" cy="179.33" r="31.67"></circle><circle class="cls-1" cx="69.67" cy="106.5" r="31.67"></circle><circle class="cls-1" cx="150.1" cy="106.5" r="31.67"></circle><circle class="cls-1" cx="108.87" cy="223.67" r="6.33"></circle><circle class="cls-1" cx="69.5" cy="152.13" r="6.33"></circle><circle class="cls-1" cx="31.67" cy="76.1" r="6.33"></circle><circle class="cls-1" cx="108.87" cy="76.1" r="6.33"></circle><circle class="cls-1" cx="194.43" cy="76.1" r="6.33"></circle><circle class="cls-1" cx="150.63" cy="152.13" r="6.33"></circle><rect class="cls-1" x="255" width="753" height="10"></rect><rect class="cls-1" x="259" y="222" width="749" height="8"></rect><path class="cls-1" d="M282.76,60.63h30.45c33.9,0,54.89,17.55,54.89,55.05,0,37.35-21,55.95-53.69,55.95H282.76Zm29.1,93.15c20.7,0,33.6-11.1,33.6-38.1,0-27.15-12.9-37.35-33.6-37.35H305v75.45Z"></path><path class="cls-1" d="M422.26,79.08h-31.2V60.63H476V79.08h-31.5v92.55h-22.2Z"></path><path class="cls-1" d="M508,60.63h36.75c22.8,0,40.2,6.6,40.2,27.3,0,10.2-5.7,20.7-15.15,24v.75c12,2.85,20.84,11.25,20.84,26.25,0,22.35-18.59,32.7-43,32.7H508Zm35.1,45.15c14.1,0,20.25-5.7,20.25-14.55,0-9.75-6.6-13.65-19.95-13.65h-13.2v28.2Zm2.55,48.75c15.15,0,23.4-5.4,23.4-16.95,0-10.8-8.1-15.3-23.4-15.3H530.16v32.25Z"></path><path class="cls-1" d="M629.66,99.63h15.05L646,109h.5c5.9-6.15,12.42-11.16,21.58-11.16,10,0,15.93,4.51,19.31,12.29,6.4-6.78,13.17-12.29,22.33-12.29,14.92,0,21.82,10.53,21.82,28.22v43.77H713.06V128.35c0-10.78-3.13-14.67-9.78-14.67q-6,0-13.54,7.9v48.29H671.3V128.35c0-10.78-3.14-14.67-9.79-14.67q-6,0-13.54,7.9v48.29H629.66Z"></path><path class="cls-1" d="M748.81,78.31c0-6,4.64-10,11-10s10.91,4,10.91,10c0,5.77-4.64,10-10.91,10S748.81,84.08,748.81,78.31Zm1.76,21.32h18.31v70.24H750.57Z"></path><path class="cls-1" d="M788.7,99.63h15l1.25,9.28h.5c6.15-6,13.3-11,22.83-11,15.18,0,21.7,10.53,21.7,28.22v43.77H831.59V128.35c0-10.78-3-14.67-9.9-14.67-5.77,0-9.41,2.76-14.68,7.9v48.29H788.7Z"></path><path class="cls-1" d="M864.71,134.88c0-22.83,15.93-37,32.73-37,19.32,0,29.35,14.17,29.35,33.61a34.36,34.36,0,0,1-.87,8.4H882.64c1.51,11.54,9,17.56,19.44,17.56a28.94,28.94,0,0,0,15.81-4.89l6.27,11.29a44.27,44.27,0,0,1-24.58,7.78C880,171.63,864.71,158,864.71,134.88ZM911,127.73c0-9.53-4.26-15.56-13.3-15.56-7.4,0-13.92,5.27-15.3,15.56Z"></path><path class="cls-1" d="M942,99.63h15l1.26,12.42h.5c5.14-9.16,12.67-14.17,19.94-14.17a19.84,19.84,0,0,1,8.28,1.5l-3.26,15.93a22.2,22.2,0,0,0-7.28-1.13c-5.51,0-12.16,3.64-16.18,13.8v41.89H942Z"></path></g></g></svg>