<svg xmlns="http://www.w3.org/2000/svg" viewBox="0 0 719 230"><defs><style>.cls-1{fill:#fff;}</style></defs><title>LOGO-白</title><g id="&#x5716;&#x5C64;_2" data-name="&#x5716;&#x5C64; 2"><g id="&#x5716;&#x5C64;_1-2" data-name="&#x5716;&#x5C64; 1"><circle class="cls-1" cx="108.87" cy="31.67" r="31.67"></circle><circle class="cls-1" cx="31.67" cy="179.33" r="31.67"></circle><circle class="cls-1" cx="108.87" cy="179.33" r="31.67"></circle><circle class="cls-1" cx="188.1" cy="179.33" r="31.67"></circle><circle class="cls-1" cx="69.67" cy="106.5" r="31.67"></circle><circle class="cls-1" cx="150.1" cy="106.5" r="31.67"></circle><circle class="cls-1" cx="108.87" cy="223.67" r="6.33"></circle><circle class="cls-1" cx="69.5" cy="152.13" r="6.33"></circle><circle class="cls-1" cx="31.67" cy="76.1" r="6.33"></circle><circle class="cls-1" cx="108.87" cy="76.1" r="6.33"></circle><circle class="cls-1" cx="194.43" cy="76.1" r="6.33"></circle><circle class="cls-1" cx="150.63" cy="152.13" r="6.33"></circle><rect class="cls-1" x="297" y="2" width="418" height="8"></rect><rect class="cls-1" x="301" y="222" width="418" height="8"></rect><path class="cls-1" d="M345.76,60.63h30.45c33.9,0,54.89,17.55,54.89,55.05,0,37.35-21,55.95-53.69,55.95H345.76Zm29.1,93.15c20.7,0,33.6-11.1,33.6-38.1,0-27.15-12.9-37.35-33.6-37.35H368v75.45Z"></path><path class="cls-1" d="M500.26,79.08h-31.2V60.63H554V79.08h-31.5v92.55h-22.2Z"></path><path class="cls-1" d="M602,60.63h36.75c22.8,0,40.2,6.6,40.2,27.3,0,10.2-5.7,20.7-15.15,24v.75c12,2.85,20.84,11.25,20.84,26.25,0,22.35-18.59,32.7-43,32.7H602Zm35.1,45.15c14.1,0,20.25-5.7,20.25-14.55,0-9.75-6.6-13.65-19.95-13.65h-13.2v28.2Zm2.55,48.75c15.15,0,23.4-5.4,23.4-16.95,0-10.8-8.1-15.3-23.4-15.3H624.16v32.25Z"></path></g></g></svg>