<svg xmlns="http://www.w3.org/2000/svg" xmlns:xlink="http://www.w3.org/1999/xlink" id="&#x5716;&#x5C64;_1" x="0px" y="0px" viewBox="0 0 200 200" style="enable-background:new 0 0 200 200;" xml:space="preserve"><style type="text/css">	.st0{fill:#2196C2;}	.st1{fill:#005C7E;}</style><g>	<path class="st0" d="M139.7,71.6c-10.6-20.2-31.4-32.7-54.1-32.7c-33.7,0-61.2,27.4-61.2,61.2s27.4,61.2,61.2,61.2  c6.8,0,13.3-1,19.4-3.1l1.9-0.6v-48.1L91.7,98.9V47.3l-26.5,12V121l-2.2,1.1V80.5l-29.5,9.7v29.4c-2.3-6.1-3.6-12.7-3.6-19.5  c0-30.6,24.9-55.5,55.5-55.5c20.7,0,39.5,11.4,49.1,29.7c0.8,1.5,1.5,3,2.1,4.6l-6.1-3.9l-6.4,2.7l15.3,9.8l6.6,4.2  c-0.4-2.6-0.9-5.2-1.6-7.8C143.3,79.5,141.7,75.4,139.7,71.6z M39.3,94.3l18.1-6v43.2l13.5-7V63L86,56.1v45.7l15.2,10.5v41  c-5,1.4-10.2,2.2-15.7,2.2c-19.3,0-36.3-9.9-46.3-24.9L39.3,94.3L39.3,94.3z"></path>	<path class="st1" d="M142.9,102.2L98.7,72.1v27.2l13.9,9.4v54.9c-8.5,3.6-17.6,5.5-27.1,5.5c-38.1,0-69.1-31-69.1-69.1  s31-69,69.1-69c25,0,48.1,13.5,60.3,35.3c1.9,3.4,3.5,7,4.8,10.6c1.2,3.4,2.1,6.9,2.8,10.4l3.2-10.5l4.4-14.7l-6.8,2.8l-1,3.3  c-0.8-1.6-1.6-3.2-2.5-4.8C137.5,40,112.5,25.3,85.5,25.3c-41.2,0-74.8,33.5-74.8,74.8s33.5,74.8,74.8,74.8  c21.8,0,42.5-9.5,56.7-26l0.7-0.8c0-18.2,0-44.3,0-44.3V102.2z M118.3,160.9v-55.3l-13.9-9.4V82.8l32.9,22.4v39.9  c0,0.3,0,0.5,0,0.8C131.8,152,125.4,157.1,118.3,160.9z"></path>	<path class="st0" d="M189.4,102.5c0-6.3-9-11-21-11s-21,4.7-21,11v18.4v0.2v18.4l0,0V158c0,6.3,9,11,21,11s21-4.7,21-11v-18.5l0,0  V121v-0.2V102.5L189.4,102.5z M168.4,97.1c9.5,0,15.3,3.5,15.3,5.3s-5.8,5.3-15.3,5.3s-15.3-3.5-15.3-5.3S158.9,97.1,168.4,97.1z   M168.4,163.3c-9.5,0-15.3-3.5-15.3-5.3v-10.9c3.8,2.1,9.1,3.3,15.3,3.3s11.5-1.3,15.3-3.3V158  C183.7,159.9,177.9,163.3,168.4,163.3z M183.7,139.5c0,1.9-5.8,5.3-15.3,5.3s-15.3-3.5-15.3-5.3l0,0v-10.7  c3.8,2.1,9.1,3.3,15.3,3.3s11.5-1.3,15.3-3.3V139.5L183.7,139.5z M183.7,121c0,1.9-5.8,5.3-15.3,5.3s-15.3-3.5-15.3-5.3v-0.2V110  c3.8,2.1,9.1,3.3,15.3,3.3s11.5-1.3,15.3-3.3v10.8V121z"></path></g></svg>