<svg xmlns="http://www.w3.org/2000/svg" xmlns:xlink="http://www.w3.org/1999/xlink" id="&#x5716;&#x5C64;_1" x="0px" y="0px" viewBox="0 0 200 200" style="enable-background:new 0 0 200 200;" xml:space="preserve"><style type="text/css">	.st0{fill:#005C7E;}	.st1{fill:#2196C2;}</style><g>	<g>		<g>			<g>				<path class="st0" d="M153.8,100.2L142.3,93c2.3-2.5,5.2-6.2,7.5-10.8c5.2-10.1,4.6-19.6-1.3-23.7c-3.2-2.2-7.6-3.1-10.4-3.5     c-1.3,3.2-3.3,7.3-5.2,10.6V53.5H77.1v-6.6V43l-3.9,0.7l-46,8.4l-6.5,1.2v6.6v95.8v6.6l6.5,1.2l45.9,8.4l3.9,0.7v-10.5h55.7V143     c3.5-0.4,6.7-2.4,8.6-5.4c1-1.6,1.6-3.5,1.8-5.4c0.9-0.3,2.4-0.9,3.5-2.1c1-0.8,1.8-1.8,2.5-2.8c1.5-2.4,2.1-5.1,1.6-7.6     c2.2-1,4.1-2.7,5.6-5s2-5.3,1.6-8C157.5,104,156,101.6,153.8,100.2z M126.3,60v13.3c-8.1,5.1-19.5,8.2-23,9.1l-13.9-8.7     c-0.5-0.3-1.1-0.5-1.7-0.5c-1.1,0-2.1,0.6-2.7,1.5l-7.8,12.4V60H126.3z M77.1,99.2l11.5-18.4l9.6,6L78.1,119l-0.9-0.6L77.1,99.2     L77.1,99.2z M70.6,54.5L70.6,54.5V161l0,0v3.9L27.3,157V58.8l43.3-7.9V54.5z M77.1,155.7V126l37,23.3c0.2,0.2,0.5,0.3,0.8,0.4     c1.6,0.8,3.3,1.2,5.1,1.2l0,0c2.3,0,4.4-0.7,6.2-1.8v6.7L77.1,155.7L77.1,155.7z M151,111.4c-1.7,2.8-3.7,2.9-3.9,2.9     c0,0,0,0-0.1,0c-0.5-0.2-1-0.4-1.5-0.4c-1.1,0-2.1,0.6-2.7,1.5c-0.9,1.5-0.5,3.5,1,4.4c0.5,0.3,1.3,2.1-0.1,4.3     c-0.9,1.5-2.4,2.4-4.1,2.5c-0.9,0.1-1.7,0.5-2.3,1.3c-0.5,0.7-0.8,1.6-0.6,2.5c0.3,1.4,0,2.7-0.7,3.9c-1,1.6-2.7,2.5-4.6,2.5     c-0.6,0-1.2-0.1-1.7-0.3c-0.4-0.1-0.7-0.2-1.1-0.2c-0.6,0-1.2,0.2-1.8,0.5c-0.8,0.5-1.4,1.5-1.4,2.5c-0.1,0.9-0.4,1.8-0.8,2.6     c-1,1.6-2.7,2.6-4.5,2.6c-0.8,0-1.6-0.2-2.4-0.6h-0.1l-34.1-21.4l21.2-33.8c4.1-1,18.3-4.9,27.5-11.6c3.7-2.7,7.4-10.1,9.6-15.1     c0.8,0.4,1.8,0.9,3,1.8c3,2.1,2.7,8.8-0.7,15.5c-3.2,6.2-7.4,10.4-9.1,11.9c-0.7,0.7-1.1,1.7-1,2.7s0.6,1.9,1.5,2.4l14.9,9.4     C151.6,106.4,152.5,109,151,111.4z"></path>			</g>			<g>				<polygon class="st1" points="159.5,68.3 185.4,81.3 188.5,74.6 161.6,63.6     "></polygon>			</g>			<g>				<polygon class="st1" points="161.9,60.4 190.6,56.3 189.3,49 161,55.4     "></polygon>			</g>			<g>				<polygon class="st1" points="175.3,27.6 155.8,49.1 159.4,52.6 180.6,32.8     "></polygon>			</g>			<g>				<polygon class="st1" points="158.8,19.3 151.5,18 147.9,46.8 152.9,47.7     "></polygon>			</g>			<g>				<polygon class="st1" points="144.7,47.3 133.3,20.7 126.6,23.9 140.1,49.5     "></polygon>			</g>		</g>		<g>			<polygon class="st1" points="168.7,181.8 9.5,181.8 9.5,33.3 116.9,33.3 116.9,39 15.2,39 15.2,176.1 163,176.1 163,84.1     168.7,84.1    "></polygon>		</g>	</g>	<g>		<path class="st1" d="M56.4,126.7c-5.3,0-9.6-4.3-9.6-9.6V96.9c0-5.3,4.3-9.6,9.6-9.6s9.6,4.3,9.6,9.6v20.3   C66,122.4,61.7,126.7,56.4,126.7z M56.4,93c-2.2,0-3.9,1.8-3.9,3.9v20.3c0,2.2,1.8,3.9,3.9,3.9s3.9-1.8,3.9-3.9V96.9   C60.4,94.7,58.6,93,56.4,93z"></path>	</g></g></svg>