<svg xmlns="http://www.w3.org/2000/svg" xmlns:xlink="http://www.w3.org/1999/xlink" id="&#x5716;&#x5C64;_1" x="0px" y="0px" viewBox="0 0 200 200" style="enable-background:new 0 0 200 200;" xml:space="preserve"><style type="text/css">	.st0{fill:#005C7E;}	.st1{fill:#2196C2;}</style><path class="st0" d="M176.3,85.4v-9.6c-0.9,0.4-1.9,0.6-3,0.6s-2.1-0.2-3-0.6v9.6h-8.9V107h8.9v14.9h5.9V107h8.9V85.4H176.3z  M179.3,101h-11.9v-9.7h11.9V101z"></path><path class="st1" d="M41.8,127.1h5.9v-14.9h8.9V61.6h-8.9V46.7h-5.9v14.9h-8.9v50.6h8.9C41.8,112.2,41.8,127.1,41.8,127.1z  M38.8,106.3V67.5h11.9v38.7H38.8V106.3z"></path><path class="st0" d="M89,97.3V83.9c-0.9,0.4-1.9,0.6-3,0.6s-2.1-0.2-3-0.6v13.4h-8.9v45.5H83v14.9h6v-14.9h8.9V97.3H89z M92,136.8 H80.1v-33.6H92V136.8z"></path><path class="st1" d="M125.1,92.2h5.9V77.3h8.9V60.7H131V47.8h-5.9v12.9h-8.9v16.6h8.9V92.2z M122.2,71.4v-4.7h11.9v4.7H122.2z"></path><path class="st0" d="M158.7,154.6c-0.3,2.2-1.2,4.2-2.5,5.9h16.4l-6.1,6.1h8l6.1-6.1l5.9-5.9H158.7z"></path><path class="st0" d="M110.8,160.6c-1.9-1.5-3.3-3.6-4-5.9H24.6V26.5l-5.9,5.9l-6.1,6.1v8l6.1-6.1v120.1h92.1V160.6z"></path><path class="st1" d="M162,124.4c-8.8-15.9-28.9-21.7-44.8-13c-15.9,8.8-21.7,28.9-13,44.8c4.3,7.7,11.3,13.3,19.7,15.8 c3,0.9,6.1,1.3,9.2,1.3c5.5,0,10.9-1.4,15.9-4.1c7.7-4.3,13.3-11.3,15.8-19.7S166.2,132.1,162,124.4z M122.6,115.1l4.4,7.9l-4.9,2.7 l-4.4-8c0.7-0.5,1.5-0.9,2.2-1.4C120.8,115.9,121.7,115.5,122.6,115.1z M129.5,157.7l-5.4-9.8l21.1-11.7c1.3-0.7,2.8-0.9,4.2-0.5 s2.6,1.4,3.3,2.7c1.5,2.7,0.5,6.1-2.2,7.6L129.5,157.7z M139.4,133.1l-18,9.9l-4.4-8l18-9.9c1.1-0.6,2.3-0.7,3.5-0.4 s2.1,1.1,2.7,2.2C142.4,129.1,141.6,131.8,139.4,133.1z M113.3,121.5l3.8,7l-10.7,5.9C107.5,129.6,109.8,125.1,113.3,121.5z  M109.2,153.5c-2.2-3.9-3.2-8.1-3.4-12.3l6.2-3.4l12.5,22.7l-5.7,3.2C114.8,161.2,111.5,157.7,109.2,153.5z M125.5,166.6 c-0.1,0-0.1,0-0.2-0.1l9.8-5.4l3.3,6C134.2,168,129.8,167.8,125.5,166.6z M143.9,165.4l-3.9-7l4.9-2.7l3.8,7 c-0.8,0.6-1.7,1.1-2.5,1.6C145.5,164.7,144.7,165,143.9,165.4z M159.3,147.9c-1.2,4.1-3.3,7.8-6.1,10.9l-3.2-5.9l3.4-1.9 c5.4-3,7.4-9.9,4.4-15.3c-1.5-2.6-3.8-4.5-6.7-5.4c-1.2-0.4-2.5-0.5-3.7-0.4c0.2-1.9-0.2-4-1.2-5.8c-1.3-2.4-3.5-4.1-6.1-4.9 s-5.4-0.4-7.8,0.9l-0.3,0.2l-3.8-6.8c1.6-0.3,3.3-0.4,4.9-0.4c9.6,0,19,5.1,24,14.1C160.5,133.5,161.3,140.9,159.3,147.9z"></path><g>	<path class="st1" d="M120.8,42.1L89.6,69.7c1.7,0.9,3.1,2.4,3.8,4.2l31.2-27.6C122.9,45.5,121.5,44,120.8,42.1z"></path>	<path class="st1" d="M170.6,62.3L135.7,41c-0.4,1.9-1.6,3.6-3.1,4.7l35.1,21.4C168,65.2,169.1,63.5,170.6,62.3z"></path>	<path class="st1" d="M82.8,69.5L52.2,39.7c-0.6,1.9-2,3.4-3.7,4.3l30.4,29.6C79.6,71.8,81,70.4,82.8,69.5z"></path></g><path class="st0" d="M44.8,26.5c-5.9,0-10.6,4.8-10.6,10.6S39,47.7,44.8,47.7S55.4,43,55.4,37.1S50.7,26.5,44.8,26.5z M44.8,42.1 c-2.7,0-5-2.2-5-5s2.2-5,5-5s5,2.2,5,5S47.5,42.1,44.8,42.1z"></path><path class="st1" d="M86,66c-5.9,0-10.6,4.8-10.6,10.6S80.2,87.3,86,87.3s10.6-4.8,10.6-10.6S91.9,66,86,66z M86,81.6 c-2.7,0-5-2.2-5-5s2.2-5,5-5c2.7,0,5,2.2,5,5S88.8,81.6,86,81.6z"></path><path class="st0" d="M128.1,28.8c-5.9,0-10.6,4.8-10.6,10.6S122.3,50,128.1,50s10.6-4.8,10.6-10.6S134,28.8,128.1,28.8z M128.1,44.4 c-2.7,0-5-2.2-5-5s2.2-5,5-5s5,2.2,5,5S130.9,44.4,128.1,44.4z"></path><path class="st1" d="M173.3,57.9c-5.9,0-10.6,4.8-10.6,10.6s4.8,10.6,10.6,10.6S184,74.4,184,68.5S179.2,57.9,173.3,57.9z  M173.3,73.5c-2.7,0-5-2.2-5-5s2.2-5,5-5c2.7,0,5,2.2,5,5S176.1,73.5,173.3,73.5z"></path></svg>